<?xml version="1.0" encoding="utf-8"?>
<svg width="118px" height="40px" viewBox="0 0 118 40" version="1.1" xmlns:xlink="http://www.w3.org/1999/xlink" xmlns="http://www.w3.org/2000/svg">
  <desc>Created with Lunacy</desc>
  <g id="ITW-logo---dk-gray-NEW">
    <g id="Group-9">
      <path d="M12.831 0L0 39.9941L2.03697 39.9941L14.8709 0L12.831 0Z" transform="translate(0.00059 0.001037037)" id="Fill-1" fill="#414141" stroke="none" />
      <path d="M12.713 0L0 39.9941L1.91602 39.9941L14.7515 0L12.713 0Z" transform="translate(3.359017 0.001037037)" id="Fill-2" fill="#414141" stroke="none" />
      <path d="M12.7101 0L0 39.9941L1.91603 39.9941L14.7485 0L12.7101 0Z" transform="translate(6.598412 0.001037037)" id="Fill-3" fill="#414141" stroke="none" />
      <path d="M12.713 0L0 39.9941L1.9175 39.9941L14.7515 0L12.713 0Z" transform="translate(9.83589 0.001037037)" id="Fill-4" fill="#414141" stroke="none" />
      <path d="M2.51635 0L0 7.83111L12.5921 7.83111L2.39688 39.9941L14.2706 39.9941L24.5853 7.83111L34.9 7.83111L37.4193 0L2.51635 0Z" transform="translate(23.98851 0.001037037)" id="Fill-5" fill="#414141" stroke="none" />
      <g id="Group-8" transform="translate(60.475 -0.004296296)">
        <path d="M44.8592 0L56.6105 0L35.7437 39.9956L24.5897 39.9956L25.0691 18.4326L25.0691 16.8681C25.0691 16.8681 25.1886 16.0237 25.1886 15.4207C25.3095 14.5763 25.429 13.6148 25.429 13.6148C25.429 13.6148 24.9481 14.6978 24.7077 15.6622C24.3478 16.5052 23.8699 17.3481 23.8699 17.3481C23.628 17.7096 23.0292 18.7941 23.0292 18.7941L11.6348 39.9956L0 39.9956L1.56055 0L13.5552 0L11.9947 17.4681C11.9947 17.4681 11.8737 18.3126 11.8737 18.9156C11.8737 18.9156 11.7557 19.757 11.5168 20.843C11.3958 21.8074 10.9165 23.6133 10.9165 23.6133C10.9165 23.6133 11.3958 22.0459 11.7557 21.2044C12.3546 19.997 12.595 19.3956 12.9549 18.5541C13.4358 17.7096 13.9137 16.6267 13.9137 16.6267C14.1526 16.2652 14.6335 15.5422 14.6335 15.5422L22.9112 0L35.1433 0L34.4221 16.5052L34.4221 17.4681C34.3041 18.4326 34.3041 19.757 34.0622 20.963C33.9442 22.1659 33.7052 23.8533 33.7052 23.8533C33.7052 23.8533 34.0622 23.0104 34.4221 21.9259C34.7834 20.963 36.1021 17.9511 36.1021 17.9511L44.8592 0ZM53.4938 1.80889L46.0583 1.80889L32.9854 28.7926C32.9854 28.7926 32.8659 29.0341 32.745 29.2726C32.506 29.6356 32.2641 29.7556 32.1432 29.5141C32.072 29.4416 32.0867 29.2817 32.1096 29.0339C32.1247 28.8713 32.1432 28.6709 32.1432 28.4326L33.2258 1.80889L24.1089 1.80889L14.0346 20.4815L13.3163 21.8074C13.3163 21.8074 12.4741 23.4919 11.6348 24.9378C10.9165 26.3837 9.71582 28.7926 9.47687 29.2726C9.23792 29.7556 8.75707 29.6356 8.87802 29.2726C8.87802 29.0341 8.87802 28.4326 9.11697 27.1052C9.23792 25.7807 9.47687 23.7333 9.71582 22.1659C9.83677 20.6015 10.1967 17.3481 10.3176 15.4207C10.5566 13.3748 11.0374 7.83111 11.0374 6.98667L11.5168 1.80889L3.36005 1.80889L1.92045 38.0696L10.5566 38.0696L11.6348 36.1407L12.3546 34.8148C12.3546 34.8148 16.1925 27.8281 17.7531 25.0578C18.4729 23.6133 21.2311 18.4326 22.1899 16.7467C23.0292 15.0593 25.0691 11.0844 25.429 10.4815C25.6679 9.75704 26.5087 8.31407 26.6267 8.19407C26.7476 7.95111 27.1075 7.71111 27.1075 8.67555L27.1075 10.12L26.5087 38.0696L34.6625 38.0696L53.4938 1.80889Z" transform="translate(0.09233499 0.003851852)" id="Fill-6" fill="#414141" fill-rule="evenodd" stroke="none" />
      </g>
    </g>
  </g>
</svg>